Coordinates
version=1
nRows=14
nColumns=40
inDegrees=yes

Units are S.I. units (second, meters, Newtons, ...)
If the header above contains a line with 'inDegrees', this indicates whether rotational values are in degrees (yes) or radians (no).

endheader
time	pelvis_tilt	pelvis_list	pelvis_rotation	pelvis_tx	pelvis_ty	pelvis_tz	hip_flexion_r	hip_adduction_r	hip_rotation_r	knee_angle_r	knee_angle_r_beta	ankle_angle_r	subtalar_angle_r	mtp_angle_r	hip_flexion_l	hip_adduction_l	hip_rotation_l	knee_angle_l	knee_angle_l_beta	ankle_angle_l	subtalar_angle_l	mtp_angle_l	lumbar_extension	lumbar_bending	lumbar_rotation	arm_flex_r	arm_add_r	arm_rot_r	elbow_flex_r	pro_sup_r	wrist_flex_r	wrist_dev_r	arm_flex_l	arm_add_l	arm_rot_l	elbow_flex_l	pro_sup_l	wrist_flex_l	wrist_dev_l
      2.77500000	     12.86294216	     -6.63233820	      0.55793739	     -0.29453447	      1.08132320	     -1.04911620	     49.39589763	      1.28948557	     -7.67286509	     27.93448459	      0.48754873	     -1.73020406	      0.00000000	      0.00000000	     -1.57543058	     -1.25328821	     -6.86665623	     26.96146766	      0.47056638	      6.31200152	      0.00000000	      0.00000000	    -14.19112724	      7.26239017	     -0.50497236	     89.57964386	    -11.67349359	     50.58249127	     28.82117911	     86.35251173	      0.00000000	      0.00000000	     89.66634765	    -18.23086944	     50.47368678	     27.36894113	     84.95118067	      0.00000000	      0.00000000
      2.78000000	     12.89971030	     -6.62497297	      0.52095636	     -0.29470449	      1.08069383	     -1.04907113	     49.38674600	      1.34911117	     -7.59838109	     27.87968693	      0.48659233	     -1.74064879	      0.00000000	      0.00000000	     -1.31492710	     -1.29867513	     -6.92155750	     27.52447103	      0.48039264	      6.41297959	      0.00000000	      0.00000000	    -14.25743090	      7.24104701	     -0.43489404	     89.58456265	    -11.67330248	     50.47375614	     28.76336651	     86.44602386	      0.00000000	      0.00000000	     89.67740862	    -18.24272340	     50.64603943	     27.48562164	     84.75776724	      0.00000000	      0.00000000
      2.78500000	     12.87272092	     -6.64838215	      0.49315264	     -0.29481080	      1.07984839	     -1.04905555	     49.46356825	      1.41275117	     -7.56556164	     27.85699015	      0.48619620	     -1.74241030	      0.00000000	      0.00000000	     -0.93779132	     -1.35962834	     -6.82971153	     28.18605094	      0.49193939	      6.63814388	      0.00000000	      0.00000000	    -14.24597653	      7.25813663	     -0.35791889	     89.59738382	    -11.73505797	     50.52282719	     28.79948630	     86.41445746	      0.00000000	      0.00000000	     89.68236569	    -18.14259977	     50.49464755	     27.42608696	     84.98763532	      0.00000000	      0.00000000
      2.79000000	     12.90822427	     -6.70234744	      0.44986219	     -0.29494285	      1.07911605	     -1.04893099	     49.45542716	      1.54152903	     -7.53646415	     27.74379241	      0.48422052	     -1.66546487	      0.00000000	      0.00000000	     -0.68081147	     -1.45344188	     -6.76477378	     28.74453868	      0.50168684	      6.79562127	      0.00000000	      0.00000000	    -14.30350449	      7.30001234	     -0.26357516	     89.61444055	    -11.75972655	     50.51056731	     28.81015593	     86.32957964	      0.00000000	      0.00000000	     89.68789262	    -18.10404207	     50.38656727	     27.44228691	     85.10033087	      0.00000000	      0.00000000
      2.79500000	     12.93096248	     -6.76261390	      0.40385092	     -0.29507191	      1.07833576	     -1.04877442	     49.46351704	      1.65974520	     -7.47611316	     27.73574677	      0.48408010	     -1.74056464	      0.00000000	      0.00000000	     -0.38632462	     -1.58878552	     -6.85462350	     29.35090318	      0.51226990	      6.93181845	      0.00000000	      0.00000000	    -14.35711996	      7.34303010	     -0.19581732	     89.62107830	    -11.73200543	     50.33693491	     28.82733879	     86.27031327	      0.00000000	      0.00000000	     89.69665442	    -18.10999187	     50.34572346	     27.52145276	     85.15118642	      0.00000000	      0.00000000
      2.80000000	     12.89705539	     -6.78898931	      0.39184610	     -0.29523211	      1.07740678	     -1.04874764	     49.55764949	      1.72094667	     -7.42155375	     27.72201969	      0.48384052	     -1.78699350	      0.00000000	      0.00000000	      0.00747601	     -1.69209301	     -6.93402579	     30.02229296	      0.52398786	      7.07569697	      0.00000000	      0.00000000	    -14.33695360	      7.35363241	     -0.15262254	     89.63192164	    -11.76084460	     50.22185350	     28.87207236	     86.29777139	      0.00000000	      0.00000000	     89.70152951	    -18.03024061	     50.28872800	     27.46695982	     85.01532500	      0.00000000	      0.00000000
      2.80500000	     12.92952600	     -6.82966858	      0.40042361	     -0.29540841	      1.07649674	     -1.04874049	     49.56670102	      1.78931672	     -7.39610935	     27.68697114	      0.48322881	     -1.78196536	      0.00000000	      0.00000000	      0.29579709	     -1.76806518	     -6.83504970	     30.62682343	      0.53453891	      7.26505873	      0.00000000	      0.00000000	    -14.39411741	      7.39822812	     -0.15255735	     89.64379693	    -11.71450009	     50.00626393	     28.87660016	     86.27720292	      0.00000000	      0.00000000	     89.71028126	    -18.04694731	     50.22024540	     27.51362088	     84.93583746	      0.00000000	      0.00000000
      2.81000000	     12.92976674	     -6.86471699	      0.36671278	     -0.29556262	      1.07554129	     -1.04865875	     49.60630472	      1.88069576	     -7.35536357	     27.61250567	      0.48192914	     -1.80401429	      0.00000000	      0.00000000	      0.60422828	     -1.87672412	     -6.96518244	     31.21100813	      0.54473485	      7.43403373	      0.00000000	      0.00000000	    -14.42028340	      7.41738209	     -0.09843107	     89.65622337	    -11.72128783	     49.89037196	     28.91245216	     86.40174286	      0.00000000	      0.00000000	     89.71665976	    -18.03425992	     50.29276317	     27.56205860	     84.55191311	      0.00000000	      0.00000000
      2.81500000	     12.98783011	     -6.85440817	      0.30634645	     -0.29566189	      1.07461380	     -1.04851833	     49.61154385	      1.97260372	     -7.22765488	     27.54542256	      0.48075832	     -1.77135528	      0.00000000	      0.00000000	      0.83171290	     -1.93027624	     -7.08868411	     31.78487380	      0.55475070	      7.58824191	      0.00000000	      0.00000000	    -14.49877768	      7.38327705	     -0.02643001	     89.66479305	    -11.71477320	     49.80047152	     28.91604421	     86.38282386	      0.00000000	      0.00000000	     89.72684934	    -18.05636886	     50.19978430	     27.63485308	     84.77495752	      0.00000000	      0.00000000
      2.82000000	     13.00889098	     -6.88822178	      0.29149763	     -0.29580816	      1.07356702	     -1.04850319	     49.64392804	      2.03774021	     -7.22394357	     27.51638752	      0.48025156	     -1.77369437	      0.00000000	      0.00000000	      1.11632251	     -2.02634416	     -7.17908217	     32.36503053	      0.56487635	      7.77877956	      0.00000000	      0.00000000	    -14.54086113	      7.42019224	     -0.00748114	     89.67764209	    -11.69448389	     49.81029228	     28.92860275	     86.21574688	      0.00000000	      0.00000000	     89.73264376	    -18.06391982	     49.99986810	     27.66293008	     85.14315061	      0.00000000	      0.00000000
      2.82500000	     13.00036690	     -6.82382023	      0.26167124	     -0.29599053	      1.07252347	     -1.04850158	     49.73122309	      2.02653404	     -7.09918957	     27.56881620	      0.48116661	     -1.88894614	      0.00000000	      0.00000000	      1.39638148	     -2.00322634	     -7.26823815	     32.86298822	      0.57356735	      7.86290310	      0.00000000	      0.00000000	    -14.55134100	      7.33007382	      0.02255091	     89.67865840	    -11.70497645	     49.71182007	     28.93410798	     86.33597218	      0.00000000	      0.00000000	     89.73938184	    -18.04392027	     50.01796585	     27.69838171	     84.92466670	      0.00000000	      0.00000000
      2.83000000	     13.07158697	     -6.85028948	      0.22560673	     -0.29605935	      1.07149075	     -1.04841614	     49.72545186	      2.11107010	     -7.08695943	     27.49839881	      0.47993760	     -1.81380246	      0.00000000	      0.00000000	      1.59455409	     -2.08804196	     -7.36669196	     33.41527109	      0.58320650	      8.08463584	      0.00000000	      0.00000000	    -14.64663771	      7.34621163	      0.04694425	     89.69140104	    -11.63527818	     49.50796877	     28.93713547	     86.35352871	      0.00000000	      0.00000000	     89.74535766	    -18.08626259	     49.94811060	     27.77107884	     84.78013505	      0.00000000	      0.00000000
      2.83500000	     13.07394530	     -6.85700112	      0.21468447	     -0.29616841	      1.07030206	     -1.04835950	     49.79838586	      2.15140397	     -7.06347308	     27.49837714	      0.47993722	     -1.83217424	      0.00000000	      0.00000000	      1.88221337	     -2.14241154	     -7.39108274	     33.96388634	      0.59278164	      8.26384272	      0.00000000	      0.00000000	    -14.65679237	      7.33334340	      0.05699383	     89.69756225	    -11.60185374	     49.37090184	     28.94961543	     86.25590467	      0.00000000	      0.00000000	     89.75268508	    -18.07493704	     49.80437350	     27.79887466	     84.88193629	      0.00000000	      0.00000000
      2.84000000	     13.11462779	     -6.83671371	      0.19433013	     -0.29635713	      1.06911636	     -1.04833009	     49.84481003	      2.17450678	     -6.99491579	     27.57268928	      0.48123421	     -1.84779246	      0.00000000	      0.00000000	      2.15158078	     -2.15905202	     -7.39494424	     34.55605464	      0.60311693	      8.48423215	      0.00000000	      0.00000000	    -14.71589353	      7.29595136	      0.09641358	     89.70508117	    -11.57463338	     49.15998260	     28.94907042	     86.22231821	      0.00000000	      0.00000000	     89.76048275	    -18.04985454	     49.73315592	     27.83661501	     84.84051241	      0.00000000	      0.00000000
